<?xml version="1.0" encoding="UTF-8"?>
<svg version="1.1" xmlns="http://www.w3.org/2000/svg" width="222" height="227">
<path d="M0 0 C73.26 0 146.52 0 222 0 C222 74.91 222 149.82 222 227 C148.74 227 75.48 227 0 227 C0 152.09 0 77.18 0 0 Z " fill="#FEFEFE" transform="translate(0,0)"/>
<path d="M0 0 C0 3 0 3 -1.79296875 4.91015625 C-2.58316406 5.62042969 -3.37335938 6.33070312 -4.1875 7.0625 C-8.80151049 11.50184764 -11.74611762 16.00852374 -14 22 C-14 22.66 -14 23.32 -14 24 C-11.69 20.04 -9.38 16.08 -7 12 C-5.92650209 16.29399165 -6.20317184 17.19495213 -8 21 C-6.88882813 20.54109375 -5.77765625 20.0821875 -4.6328125 19.609375 C-0.80115917 18.02803724 3.03223436 16.4509722 6.86669922 14.87646484 C8.67352781 14.13413083 10.47944357 13.3895756 12.28515625 12.64453125 C13.16042969 12.28746094 14.03570312 11.93039063 14.9375 11.5625 C15.68902344 11.25441406 16.44054687 10.94632813 17.21484375 10.62890625 C19 10 19 10 21 10 C19.96519749 13.39898633 18.82890784 14.09978692 15.69140625 15.9296875 C14.32042469 16.58929964 12.94374584 17.23716103 11.5625 17.875 C10.10614598 18.57682984 8.65041857 19.27996142 7.1953125 19.984375 C6.12265137 20.49774414 6.12265137 20.49774414 5.02832031 21.02148438 C-6.09020199 26.00919127 -6.09020199 26.00919127 -15 34 C-15.53653364 36.47063054 -15.53653364 36.47063054 -15 39 C-10.93595978 44.05426322 -4.76618121 48.57202486 1.75 49.3125 C4.19921218 49.20286001 4.19921218 49.20286001 6 47 C6.30059943 44.63490639 6.49515012 42.25558119 6.625 39.875 C6.69976562 38.59367187 6.77453125 37.31234375 6.8515625 35.9921875 C6.90054688 35.00476562 6.94953125 34.01734375 7 33 C7.66 33 8.32 33 9 33 C9.01458252 33.65073486 9.02916504 34.30146973 9.04418945 34.97192383 C9.11864549 37.91938306 9.21531266 40.86570642 9.3125 43.8125 C9.33505859 44.83666016 9.35761719 45.86082031 9.38085938 46.91601562 C9.4340332 48.39038086 9.4340332 48.39038086 9.48828125 49.89453125 C9.51446533 50.80050049 9.54064941 51.70646973 9.56762695 52.63989258 C10.07719785 55.4213843 10.74947832 56.33225064 13 58 C15.73230305 58.57775884 15.73230305 58.57775884 18.6875 58.6875 C20.440625 58.790625 22.19375 58.89375 24 59 C23.505 48.605 23.505 48.605 23 38 C23.99 38.495 23.99 38.495 25 39 C25.4140625 41.94140625 25.4140625 41.94140625 25.625 45.5625 C25.69976562 46.76003906 25.77453125 47.95757812 25.8515625 49.19140625 C25.90054688 50.11824219 25.94953125 51.04507813 26 52 C29.35433109 51.05066101 32.69246505 50.10251165 36 49 C34.9885681 40.8686199 33.36216686 33.34103178 30.70703125 25.58203125 C30 23 30 23 31 21 C33.63365987 25.9221313 35.64475824 30.57903298 37 36 C37.66 36 38.32 36 39 36 C39.495 39.96 39.495 39.96 40 44 C40.99 44 41.98 44 43 44 C45.41483656 42.00162681 45.41483656 42.00162681 45.4375 38.0625 C45.36197918 31.64323018 43.48260059 25.63129459 41.69116211 19.51391602 C41.46178955 18.71655029 41.23241699 17.91918457 40.99609375 17.09765625 C40.78138428 16.38101807 40.5666748 15.66437988 40.34545898 14.92602539 C40 13 40 13 41 10 C43.84823309 14.23476298 45.27653508 18.46577156 46.6875 23.3125 C47.02491211 24.3943457 47.02491211 24.3943457 47.36914062 25.49804688 C48.84220716 30.49035444 49.21747591 34.79821132 49 40 C49.99 40 50.98 40 52 40 C52.28938128 34.59821606 51.81900917 30.87402661 49.734375 25.8984375 C48.73670761 23.31936117 48.34179985 20.73439877 48 18 C48.66 18.33 49.32 18.66 50 19 C50 17.02 50 15.04 50 13 C53.14327974 16.28615609 53.62952986 19.52911179 54.46484375 23.83203125 C55.14134202 26.57258993 56.54549739 28.59690873 58 31 C59.15197142 35.1470971 59.39574121 37.87708897 57.4375 41.6875 C54.14219871 47.41667527 47.47169145 49.85761686 41.625 52.25 C40.98433594 52.518125 40.34367187 52.78625 39.68359375 53.0625 C38.1247365 53.71396273 36.56269465 54.35779672 35 55 C42.58035714 51.59821429 42.58035714 51.59821429 47 52 C46.44725065 58.77117958 44.46860637 63.15736236 39.9375 68.375 C38 70 38 70 35 71 C34.96747064 73.29191849 34.96747064 73.29191849 36 76 C37.636208 77.54311722 37.636208 77.54311722 39.5625 79 C42.91222101 81.70740338 42.91222101 81.70740338 43.75 84.5 C42.63580772 88.21397427 40.67928223 90.1931329 38 93 C35.29120665 94.35439668 32.99066732 94.06501451 30 94 C32.10458696 104.74614857 34.08062098 111.3450668 43.29296875 117.703125 C45 119 45 119 46 121 C46.99632886 135.25516675 44.42031316 145.97052302 35 157 C32.38054468 158.79912768 29.97229673 159.79093014 27 161 C25.02575131 163.06544894 25.02575131 163.06544894 24 165 C19.0793137 164.57822689 17.39171472 162.39171472 14 159 C12.96875 158.67 11.9375 158.34 10.875 158 C7.1293436 156.69716299 6.78694473 155.49943342 5 152 C3.98298541 150.5805894 2.96174666 149.16420081 1.9375 147.75 C-2.95321763 140.3957199 -4.18609091 131.73626104 -3 123 C-2.49984375 122.1440625 -1.9996875 121.288125 -1.484375 120.40625 C0.71759844 115.35330042 0.22897989 110.62869938 0.0625 105.1875 C-0.11112011 94.93867497 0.44043351 85.12325746 2 75 C0.91332031 74.73058594 -0.17335938 74.46117188 -1.29296875 74.18359375 C-6.2556618 72.59908796 -8.50503252 70.52760872 -11 66 C-12.02270645 62.35936077 -12.60590436 58.75749811 -13 55 C-6.66413818 55.86988267 -1.90930962 57.20747155 3.30859375 60.9765625 C5.09829511 62.25884425 5.09829511 62.25884425 8 62 C2.47521296 56.8435321 -3.34485486 53.51858127 -10 50 C-14.73267009 47.24644649 -17.73094971 45.06172756 -20 40 C-21.38801846 29.89470672 -19.0179196 22.15598648 -15 13 C-14.52433594 11.37964844 -14.52433594 11.37964844 -14.0390625 9.7265625 C-13 7 -13 7 -9.75 5.375 C-8.5125 4.92125 -7.275 4.4675 -6 4 C-3.91656724 2.76083411 -1.98136899 1.40145611 0 0 Z " fill="#040404" transform="translate(90,28)"/>
<path d="M0 0 C0.66 0.33 1.32 0.66 2 1 C2.34123581 2.99866686 2.6725678 4.99902542 3 7 C3.52249544 8.29953995 4.0653228 9.59103466 4.625 10.875 C6.37709305 15.25946473 5.90028159 18.41674825 5 23 C4.01 23 3.02 23 2 23 C1.79503906 21.89140625 1.59007812 20.7828125 1.37890625 19.640625 C1.10683538 18.17707133 0.83469638 16.71353033 0.5625 15.25 C0.42779297 14.52039062 0.29308594 13.79078125 0.15429688 13.0390625 C-0.47459267 9.66453325 -1.14322173 6.32365306 -2 3 C-1.34 3 -0.68 3 0 3 C0 2.01 0 1.02 0 0 Z " fill="#DEDEDE" transform="translate(137,45)"/>
<path d="M0 0 C0.66 0.66 1.32 1.32 2 2 C1.67 2.99 1.34 3.98 1 5 C0.67 4.67 0.34 4.34 0 4 C-2.31 7.96 -4.62 11.92 -7 16 C-8 13 -8 13 -7.109375 10.625 C-6.66078125 9.75875 -6.2121875 8.8925 -5.75 8 C-5.31171875 7.13375 -4.8734375 6.2675 -4.421875 5.375 C-3.12420762 3.20746767 -1.87222211 1.67398683 0 0 Z " fill="#D2D2D2" transform="translate(83,37)"/>
</svg>
